<svg width="723" height="155" viewBox="0 0 723 155" fill="none" xmlns="http://www.w3.org/2000/svg">
<path d="M722.5 77.5C722.5 82.681 720.053 87.7874 715.294 92.7737C710.532 97.7622 703.485 102.598 694.365 107.221C676.128 116.464 649.706 124.803 617.014 131.812C551.639 145.827 461.301 154.5 361.5 154.5C261.699 154.5 171.361 145.827 105.986 131.812C73.2941 124.803 46.8718 116.464 28.6345 107.221C19.5151 102.598 12.4676 97.7622 7.70608 92.7737C2.94664 87.7874 0.5 82.681 0.5 77.5C0.5 72.319 2.94664 67.2126 7.70608 62.2263C12.4676 57.2378 19.5151 52.4018 28.6345 47.7795C46.8718 38.5357 73.2941 30.1967 105.986 23.1881C171.361 9.17274 261.699 0.5 361.5 0.5C461.301 0.5 551.639 9.17274 617.014 23.1881C649.706 30.1967 676.128 38.5357 694.365 47.7795C703.485 52.4018 710.532 57.2378 715.294 62.2263C720.053 67.2126 722.5 72.319 722.5 77.5Z" stroke="black"/>
</svg>
