<svg width="521" height="132" viewBox="0 0 521 132" fill="none" xmlns="http://www.w3.org/2000/svg">
<path d="M519.498 40.2294C519.891 44.2289 518.533 48.3444 515.509 52.5345C512.482 56.7281 507.805 60.9699 501.619 65.1967C489.247 73.6499 470.929 81.9837 447.999 89.7299C402.147 105.22 337.962 118.325 266.318 125.364C194.674 132.403 129.167 132.041 81.1766 125.771C57.1775 122.636 37.5873 118.027 23.8069 112.143C16.9164 109.201 11.503 105.951 7.71828 102.426C3.93666 98.905 1.80348 95.1325 1.41052 91.1331C1.01757 87.1336 2.37573 83.0181 5.39966 78.828C8.42606 74.6345 13.1034 70.3926 19.2895 66.1659C31.6613 57.7126 49.9798 49.3789 72.9098 41.6326C118.762 26.1427 182.946 13.0376 254.59 5.99832C326.234 -1.04093 391.742 -0.678337 439.732 5.59125C463.731 8.72657 483.321 13.3357 497.102 19.2194C503.992 22.1613 509.405 25.4117 513.19 28.9361C516.972 32.4575 519.105 36.23 519.498 40.2294Z" stroke="black"/>
</svg>
