<svg width="494" height="152" viewBox="0 0 494 152" fill="none" xmlns="http://www.w3.org/2000/svg">
<path d="M492.961 112.147C491.663 121.035 483.708 128.649 470.122 134.743C456.562 140.825 437.534 145.327 414.389 148.069C368.105 153.553 305.47 151.987 237.462 142.061C169.454 132.135 108.984 115.734 66.1981 97.2507C44.8017 88.0076 27.8545 78.2553 16.5987 68.5509C5.32139 58.8279 -0.126426 49.2584 1.17087 40.3698C2.46816 31.4812 10.4238 23.8679 24.0097 17.7738C37.5696 11.6912 56.5972 7.18944 79.7429 4.4473C126.027 -1.03609 188.662 0.529675 256.67 10.4555C324.678 20.3813 385.147 36.7827 427.933 55.266C449.33 64.5091 466.277 74.2613 477.533 83.9658C488.81 93.6888 494.258 103.258 492.961 112.147Z" stroke="black"/>
</svg>
